<mxfile host="app.diagrams.net" modified="2021-04-17T09:29:09.698Z" agent="5.0 (Windows NT 10.0; Win64; x64) AppleWebKit/537.36 (KHTML, like Gecko) Chrome/89.0.4389.128 Safari/537.36" etag="VyZv0hmyEY97TDzctp1E" version="14.6.1" type="github">
  <diagram id="XuPZVXMPF0Wgs9ThkzH2" name="第 1 页">
    <mxGraphModel dx="868" dy="394" grid="0" gridSize="10" guides="1" tooltips="1" connect="1" arrows="1" fold="1" page="1" pageScale="1" pageWidth="1169" pageHeight="827" background="#ffffff" math="0" shadow="1">
      <root>
        <mxCell id="0" />
        <mxCell id="1" parent="0" />
        <mxCell id="hvpfxD74B7z-zombw1iz-32" value="" style="rounded=0;whiteSpace=wrap;html=1;fillColor=#d5e8d4;strokeColor=#82b366;" vertex="1" parent="1">
          <mxGeometry x="610" y="60" width="525" height="180" as="geometry" />
        </mxCell>
        <mxCell id="hvpfxD74B7z-zombw1iz-43" style="edgeStyle=orthogonalEdgeStyle;rounded=0;orthogonalLoop=1;jettySize=auto;html=1;exitX=0.5;exitY=0;exitDx=0;exitDy=0;entryX=0.75;entryY=1;entryDx=0;entryDy=0;" edge="1" parent="1" source="hvpfxD74B7z-zombw1iz-2" target="hvpfxD74B7z-zombw1iz-17">
          <mxGeometry relative="1" as="geometry" />
        </mxCell>
        <mxCell id="hvpfxD74B7z-zombw1iz-2" value="" style="rounded=0;whiteSpace=wrap;html=1;fillColor=none;dashed=1;" vertex="1" parent="1">
          <mxGeometry x="600" y="260" width="180" height="100" as="geometry" />
        </mxCell>
        <mxCell id="hvpfxD74B7z-zombw1iz-4" value="&lt;font style=&quot;font-size: 14px&quot;&gt;Compsite Framwork&lt;br&gt;&lt;/font&gt;" style="rounded=0;whiteSpace=wrap;html=1;fillColor=#fff2cc;strokeColor=#d6b656;" vertex="1" parent="1">
          <mxGeometry x="610" y="270" width="160" height="40" as="geometry" />
        </mxCell>
        <mxCell id="hvpfxD74B7z-zombw1iz-5" style="edgeStyle=orthogonalEdgeStyle;rounded=0;orthogonalLoop=1;jettySize=auto;html=1;exitX=0.75;exitY=0;exitDx=0;exitDy=0;entryX=0.75;entryY=1;entryDx=0;entryDy=0;" edge="1" parent="1" source="hvpfxD74B7z-zombw1iz-6" target="hvpfxD74B7z-zombw1iz-8">
          <mxGeometry relative="1" as="geometry" />
        </mxCell>
        <mxCell id="hvpfxD74B7z-zombw1iz-6" value="&lt;font style=&quot;font-size: 14px&quot;&gt;Device Control driver&lt;br&gt;&lt;/font&gt;" style="rounded=0;whiteSpace=wrap;html=1;fillColor=#d5e8d4;strokeColor=#82b366;" vertex="1" parent="1">
          <mxGeometry x="610" y="390" width="160" height="60" as="geometry" />
        </mxCell>
        <mxCell id="hvpfxD74B7z-zombw1iz-7" style="edgeStyle=orthogonalEdgeStyle;rounded=0;orthogonalLoop=1;jettySize=auto;html=1;exitX=0.25;exitY=1;exitDx=0;exitDy=0;entryX=0.25;entryY=0;entryDx=0;entryDy=0;" edge="1" parent="1" source="hvpfxD74B7z-zombw1iz-8" target="hvpfxD74B7z-zombw1iz-6">
          <mxGeometry relative="1" as="geometry" />
        </mxCell>
        <mxCell id="hvpfxD74B7z-zombw1iz-8" value="&lt;font style=&quot;font-size: 14px&quot;&gt;USB Gadget Interface&lt;br&gt;&lt;/font&gt;" style="rounded=0;whiteSpace=wrap;html=1;fillColor=#fff2cc;strokeColor=#d6b656;" vertex="1" parent="1">
          <mxGeometry x="610" y="310" width="160" height="40" as="geometry" />
        </mxCell>
        <mxCell id="hvpfxD74B7z-zombw1iz-9" value="" style="shape=curlyBracket;whiteSpace=wrap;html=1;rounded=1;fillColor=none;" vertex="1" parent="1">
          <mxGeometry x="560" y="260" width="20" height="100" as="geometry" />
        </mxCell>
        <mxCell id="hvpfxD74B7z-zombw1iz-10" value="" style="shape=curlyBracket;whiteSpace=wrap;html=1;rounded=1;fillColor=none;" vertex="1" parent="1">
          <mxGeometry x="560" y="390" width="20" height="60" as="geometry" />
        </mxCell>
        <mxCell id="hvpfxD74B7z-zombw1iz-11" value="" style="shape=curlyBracket;whiteSpace=wrap;html=1;rounded=1;fillColor=none;" vertex="1" parent="1">
          <mxGeometry x="565" y="60" width="20" height="180" as="geometry" />
        </mxCell>
        <mxCell id="hvpfxD74B7z-zombw1iz-13" value="2. Gadget 设备层" style="text;html=1;align=center;verticalAlign=middle;resizable=0;points=[];autosize=1;strokeColor=none;" vertex="1" parent="1">
          <mxGeometry x="440" y="300" width="110" height="20" as="geometry" />
        </mxCell>
        <mxCell id="hvpfxD74B7z-zombw1iz-14" value="3. 设备功能驱动" style="text;html=1;align=center;verticalAlign=middle;resizable=0;points=[];autosize=1;strokeColor=none;" vertex="1" parent="1">
          <mxGeometry x="460" y="80" width="100" height="20" as="geometry" />
        </mxCell>
        <mxCell id="hvpfxD74B7z-zombw1iz-18" value="&lt;font style=&quot;font-size: 14px&quot;&gt;hid&lt;br&gt;functions&lt;br&gt;&lt;/font&gt;" style="rounded=0;whiteSpace=wrap;html=1;fillColor=#f8cecc;strokeColor=#b85450;" vertex="1" parent="1">
          <mxGeometry x="1040" y="160" width="70" height="60" as="geometry" />
        </mxCell>
        <mxCell id="hvpfxD74B7z-zombw1iz-25" value="&lt;font style=&quot;font-size: 14px&quot;&gt;uac&lt;br&gt;functions&lt;br&gt;&lt;/font&gt;" style="rounded=0;whiteSpace=wrap;html=1;fillColor=#f8cecc;strokeColor=#b85450;" vertex="1" parent="1">
          <mxGeometry x="920" y="160" width="70" height="60" as="geometry" />
        </mxCell>
        <mxCell id="hvpfxD74B7z-zombw1iz-26" value="&lt;font style=&quot;font-size: 14px&quot;&gt;uvc&lt;br&gt;functions&lt;br&gt;&lt;/font&gt;" style="rounded=0;whiteSpace=wrap;html=1;fillColor=#f8cecc;strokeColor=#b85450;" vertex="1" parent="1">
          <mxGeometry x="800" y="160" width="70" height="60" as="geometry" />
        </mxCell>
        <mxCell id="hvpfxD74B7z-zombw1iz-29" style="edgeStyle=orthogonalEdgeStyle;rounded=0;orthogonalLoop=1;jettySize=auto;html=1;exitX=0.5;exitY=1;exitDx=0;exitDy=0;entryX=0.5;entryY=0;entryDx=0;entryDy=0;" edge="1" parent="1" source="hvpfxD74B7z-zombw1iz-27" target="hvpfxD74B7z-zombw1iz-26">
          <mxGeometry relative="1" as="geometry" />
        </mxCell>
        <mxCell id="hvpfxD74B7z-zombw1iz-30" style="edgeStyle=orthogonalEdgeStyle;rounded=0;orthogonalLoop=1;jettySize=auto;html=1;exitX=0.5;exitY=1;exitDx=0;exitDy=0;entryX=0.5;entryY=0;entryDx=0;entryDy=0;" edge="1" parent="1" source="hvpfxD74B7z-zombw1iz-27" target="hvpfxD74B7z-zombw1iz-25">
          <mxGeometry relative="1" as="geometry" />
        </mxCell>
        <mxCell id="hvpfxD74B7z-zombw1iz-31" style="edgeStyle=orthogonalEdgeStyle;rounded=0;orthogonalLoop=1;jettySize=auto;html=1;exitX=0.5;exitY=1;exitDx=0;exitDy=0;entryX=0.414;entryY=-0.05;entryDx=0;entryDy=0;entryPerimeter=0;" edge="1" parent="1" source="hvpfxD74B7z-zombw1iz-27" target="hvpfxD74B7z-zombw1iz-18">
          <mxGeometry relative="1" as="geometry" />
        </mxCell>
        <mxCell id="hvpfxD74B7z-zombw1iz-27" value="&lt;font style=&quot;font-size: 14px&quot;&gt;config&lt;br&gt;&lt;/font&gt;" style="rounded=0;whiteSpace=wrap;html=1;fillColor=#f8cecc;strokeColor=#b85450;" vertex="1" parent="1">
          <mxGeometry x="920" y="80" width="70" height="40" as="geometry" />
        </mxCell>
        <mxCell id="hvpfxD74B7z-zombw1iz-28" style="edgeStyle=orthogonalEdgeStyle;rounded=0;orthogonalLoop=1;jettySize=auto;html=1;exitX=1;exitY=0.5;exitDx=0;exitDy=0;entryX=0;entryY=0.5;entryDx=0;entryDy=0;" edge="1" parent="1" source="hvpfxD74B7z-zombw1iz-17" target="hvpfxD74B7z-zombw1iz-27">
          <mxGeometry relative="1" as="geometry" />
        </mxCell>
        <mxCell id="hvpfxD74B7z-zombw1iz-41" style="edgeStyle=orthogonalEdgeStyle;rounded=0;orthogonalLoop=1;jettySize=auto;html=1;exitX=0.25;exitY=1;exitDx=0;exitDy=0;entryX=0.25;entryY=0;entryDx=0;entryDy=0;" edge="1" parent="1" source="hvpfxD74B7z-zombw1iz-17" target="hvpfxD74B7z-zombw1iz-2">
          <mxGeometry relative="1" as="geometry" />
        </mxCell>
        <mxCell id="hvpfxD74B7z-zombw1iz-17" value="&lt;font style=&quot;font-size: 14px&quot;&gt;legacy&lt;br&gt;&lt;/font&gt;" style="rounded=0;whiteSpace=wrap;html=1;fillColor=#f8cecc;strokeColor=#b85450;" vertex="1" parent="1">
          <mxGeometry x="627" y="70" width="70" height="60" as="geometry" />
        </mxCell>
        <mxCell id="hvpfxD74B7z-zombw1iz-44" value="1. USB 设备控制器层" style="text;html=1;align=center;verticalAlign=middle;resizable=0;points=[];autosize=1;strokeColor=none;" vertex="1" parent="1">
          <mxGeometry x="430" y="410" width="130" height="20" as="geometry" />
        </mxCell>
      </root>
    </mxGraphModel>
  </diagram>
</mxfile>
